<?xml version="1.0" encoding="utf-8"?>
<!-- Generator: Adobe Illustrator 18.1.1, SVG Export Plug-In . SVG Version: 6.00 Build 0)  -->
<svg version="1.1" xmlns="http://www.w3.org/2000/svg" xmlns:xlink="http://www.w3.org/1999/xlink" x="0px" y="0px"
	 viewBox="0 0 46 46" enable-background="new 0 0 46 46" xml:space="preserve">
<g id="bg" display="none">
	<rect x="1" y="1" display="inline" fill="#CECECE" width="45" height="45"/>
</g>
<g id="seta_x5F_up" display="none">
	<path display="inline" fill="#231F20" d="M11.2,30L24,17.2L21.8,15L9,27.8L11.2,30z M39,27.8L26.2,15L24,17.2L36.8,30L39,27.8z"/>
</g>
<g id="x" display="none">
	<path display="inline" fill="#231F20" d="M18.7,31l12.8-12.8L29.3,16L16.5,28.8L18.7,31z"/>
	
		<rect x="15" y="21.9" transform="matrix(0.7071 0.7071 -0.7071 0.7071 23.6453 -10.0877)" display="inline" fill="#231F20" width="18.1" height="3.1"/>
</g>
<g id="x2_1_" display="none">
	<g id="x2" display="inline">
		<polygon fill="#231F20" points="31.5,17 30,15.5 23.5,22 17,15.5 15.5,17 22,23.5 15.5,30 17,31.5 23.5,25 30,31.5 31.5,30 
			25,23.5 		"/>
	</g>
</g>
<g id="seta2_x5F_dw" display="none">
	<g id="x2_3_" display="inline">
		<polygon fill="#231F20" points="25,23.5 31.5,17 30,15.5 23.5,22 17,15.5 15.5,17 22,23.5 23.5,22 		"/>
		<path fill="#231F20" d="M23.5,25"/>
	</g>
</g>
<g id="lista" display="none">
	<rect x="9" y="9" display="inline" fill="#231F20" width="13" height="13"/>
	<rect x="24" y="9" display="inline" fill="#231F20" width="13" height="13"/>
	<rect x="9" y="24" display="inline" fill="#231F20" width="13" height="13"/>
	<rect x="24" y="24" display="inline" fill="#231F20" width="13" height="13"/>
</g>
<g id="mapa"> 
	<path d="M27.6,24.3c0.1-0.4,0.2-0.9,0.2-1.3c0-0.5-0.1-0.9-0.2-1.4l5.8,1.4c0-5.8-4.7-10.5-10.5-10.5c0,0,0,0,0,0l1.4,5.8
		c-0.4-0.1-0.9-0.2-1.3-0.2c-0.5,0-0.9,0.1-1.4,0.2l1.4-5.9c-5.8,0-10.5,4.7-10.5,10.5c0,0,0,0,0,0l5.8-1.4
		c-0.1,0.4-0.2,0.9-0.2,1.3c0,0.5,0.1,0.9,0.2,1.4L12.5,23c0,5.8,4.7,10.5,10.5,10.5c0,0,0,0,0,0l-1.4-5.8c0.4,0.1,0.9,0.2,1.3,0.2
		c0.5,0,0.9-0.1,1.4-0.2L23,33.5l0,0c5.8,0,10.5-4.7,10.5-10.5c0,0,0,0,0,0l0,0L27.6,24.3z M16.9,17l3,2.3c-0.3,0.2-0.5,0.5-0.8,0.8
		L16.9,17z M23,26.3c-0.5,0-0.9-0.1-1.3-0.3l-6.1,4.3c0,0,0,0,0,0l4.3-6.1c-0.1-0.4-0.2-0.8-0.2-1.2c0-1.8,1.5-3.3,3.3-3.3
		c0.4,0,0.8,0.1,1.2,0.2l6.2-4.3l-4.3,6.1c0.2,0.4,0.3,0.8,0.3,1.3C26.3,24.8,24.8,26.3,23,26.3z M26,26.8c0.3-0.2,0.5-0.5,0.8-0.8
		l2.3,3L26,26.8z"/>
</g>
<g id="mais" display="none">
	<path display="inline" fill="#231F20" d="M24.6,29.5l0-14.1l-1.1,0l0,14.1L24.6,29.5z"/>
	<rect x="17" y="21.9" display="inline" fill="#231F20" width="14.1" height="1.1"/>
</g>
<g id="seta_x5F_dw" display="none">
	<path display="inline" fill="#231F20" d="M36.8,15L24,27.8l2.2,2.2L39,17.2L36.8,15z M9,17.2L21.8,30l2.2-2.2L11.2,15L9,17.2z"/>
</g>
<g id="menu" display="none">
	<rect x="15.3" y="15.5" display="inline" fill="#231F20" width="17.4" height="3"/>
	<rect x="15.3" y="27.5" display="inline" fill="#231F20" width="17.4" height="3"/>
	<rect x="15.3" y="21.5" display="inline" fill="#231F20" width="17.4" height="3"/>
</g>
</svg>
