<?xml version="1.0" encoding="utf-8"?>
<!-- Generator: Adobe Illustrator 18.1.1, SVG Export Plug-In . SVG Version: 6.00 Build 0)  -->
<svg version="1.1" xmlns="http://www.w3.org/2000/svg" xmlns:xlink="http://www.w3.org/1999/xlink" x="0px" y="0px"
	 viewBox="0 0 26 26" enable-background="new 0 0 26 26" xml:space="preserve">
<g id="bola" display="none">
	<g display="inline">
		<circle fill="#FFFFFF" cx="13" cy="13" r="12.6"/>
	</g>
</g>
<g id="instagram">
	<g>
		<path fill="#FFFFFF" d="M13.1,15.2c1.2,0,2.2-1,2.2-2.2c0-0.5-0.2-0.9-0.4-1.3h0c-0.2-0.3-0.6-0.6-1-0.8c0,0,0,0,0,0
			c-0.1,0-0.1,0-0.2-0.1c0,0,0,0-0.1,0c-0.1,0-0.1,0-0.2,0c0,0,0,0-0.1,0c-0.1,0-0.2,0-0.2,0c0,0,0,0,0,0c-0.1,0-0.2,0-0.2,0
			c0,0-0.1,0-0.1,0c0,0-0.1,0-0.1,0c0,0-0.1,0-0.1,0c0,0-0.1,0-0.1,0c0,0-0.1,0-0.1,0c0,0-0.1,0-0.1,0.1c0,0,0,0-0.1,0
			c-0.1,0-0.1,0.1-0.2,0.1c0,0,0,0,0,0c-0.1,0-0.1,0.1-0.2,0.1c0,0,0,0-0.1,0c0,0-0.1,0.1-0.1,0.1c0,0,0,0-0.1,0.1
			c0,0-0.1,0.1-0.1,0.1c-0.3,0.4-0.4,0.8-0.4,1.3C10.9,14.2,11.9,15.2,13.1,15.2z"/>
		<path fill="#FFFFFF" d="M16.4,13c0,1.9-1.5,3.4-3.4,3.4c-1.9,0-3.4-1.5-3.4-3.4c0-0.4,0.1-0.9,0.2-1.3H8.2V17
			c0,0.5,0.4,0.8,0.8,0.8h8c0.5,0,0.8-0.4,0.8-0.8v-5.3h-1.7C16.3,12.1,16.4,12.6,16.4,13z"/>
		<path fill="#FFFFFF" d="M13,0.4C6.1,0.4,0.4,6.1,0.4,13S6.1,25.6,13,25.6S25.6,19.9,25.6,13S19.9,0.4,13,0.4z M19.1,17
			c0,1.1-0.9,2.1-2.1,2.1H9c-1.1,0-2.1-0.9-2.1-2.1V9c0-1.1,0.9-2.1,2.1-2.1h8c1.1,0,2.1,0.9,2.1,2.1V17z"/>
		<path fill="#FFFFFF" d="M17.4,8.2h-1.5c-0.3,0-0.5,0.2-0.5,0.5v1.5c0,0.3,0.2,0.5,0.5,0.5h1.5c0.2,0,0.4-0.2,0.4-0.4V8.6
			C17.8,8.3,17.6,8.2,17.4,8.2z"/>
		
	</g>
</g>
<g id="fbook">
	<g>
		<path fill="#FFFFFF" d="M13,0.4C6.1,0.4,0.4,6.1,0.4,13S6.1,25.6,13,25.6S25.6,19.9,25.6,13S19.9,0.4,13,0.4z M15.6,8.7
			c-0.2,0-0.4-0.1-0.7-0.1c-0.8,0-1.3,0.4-1.3,1.2v0.7h1.7v1.7h-1.7V19h-2.3v-6.8h-1.3v-1.7h1.3V9.8c0-0.9,0.3-1.7,0.8-2.2
			c0.5-0.5,1.3-0.8,2.3-0.8c0.3,0,0.7,0.1,1.1,0.2L15.6,8.7z"/>
	</g>
</g>
<g id="email">
	<g>
		<path fill="#FFFFFF" d="M13,0.4C6.1,0.4,0.4,6.1,0.4,13S6.1,25.6,13,25.6S25.6,19.9,25.6,13S19.9,0.4,13,0.4z M18.2,9L13,13.3
			L7.8,9H18.2z M19,17H7V9.7l6,5l6-5V17z"/>
	</g>
</g>
<g id="twitter">
	<g>
		<path fill="#FFFFFF" d="M13,0.4C6.1,0.4,0.4,6.1,0.4,13S6.1,25.6,13,25.6S25.6,19.9,25.6,13S19.9,0.4,13,0.4z M18.8,11.3
			c0,0.1,0,0.2,0,0.3c0,3.4-2.6,7.4-7.4,7.4c-1.5,0-2.8-0.4-4-1.2c0.2,0,0.4,0,0.6,0c1.2,0,2.3-0.4,3.2-1.1c-1.1,0-2.1-0.8-2.4-1.8
			c0.2,0,0.3,0,0.5,0c0.2,0,0.5,0,0.7-0.1C8.9,14.7,8,13.6,8,12.4c0,0,0,0,0,0c0.3,0.2,0.7,0.3,1.2,0.3C8.5,12.2,8,11.4,8,10.5
			C8,10,8.1,9.6,8.4,9.2c1.3,1.6,3.2,2.6,5.3,2.7c0-0.2-0.1-0.4-0.1-0.6c0-1.4,1.2-2.6,2.6-2.6c0.7,0,1.4,0.3,1.9,0.8
			c0.6-0.1,1.1-0.3,1.6-0.6c-0.2,0.6-0.6,1.1-1.1,1.4c0.5-0.1,1-0.2,1.5-0.4C19.7,10.5,19.3,10.9,18.8,11.3z"/>
	</g>
</g>
</svg>
