<?xml version="1.0" encoding="utf-8"?>
<!-- Generator: Adobe Illustrator 18.1.1, SVG Export Plug-In . SVG Version: 6.00 Build 0)  -->
<svg version="1.1" xmlns="http://www.w3.org/2000/svg" xmlns:xlink="http://www.w3.org/1999/xlink" x="0px" y="0px"
	 viewBox="0 0 210 210" enable-background="new 0 0 210 210" xml:space="preserve">
<g id="bg" display="none">
	<rect x="0" y="0" display="inline" width="210" height="210"/>
</g>
<g id="diagonais" display="none">
	
		<rect x="27.3" y="8.8" transform="matrix(-0.7071 0.7071 -0.7071 -0.7071 75.1177 31.0939)" display="inline" width="7.7" height="44.6"/>
	
		<rect x="64.2" y="8.8" transform="matrix(-0.7071 -0.7071 0.7071 -0.7071 94.1948 101.2243)" display="inline" width="7.7" height="44.6"/>
	
		<rect x="101.2" y="8.8" transform="matrix(-0.7071 0.7071 -0.7071 -0.7071 201.2498 -21.1497)" display="inline" width="7.7" height="44.6"/>
	
		<rect x="138.1" y="8.8" transform="matrix(-0.7071 -0.7071 0.7071 -0.7071 220.3242 153.4708)" display="inline" width="7.7" height="44.6"/>
	
		<rect x="175.1" y="8.8" transform="matrix(-0.7071 0.7071 -0.7071 -0.7071 327.3821 -73.3934)" display="inline" width="7.7" height="44.6"/>
	
		<rect x="175.1" y="8.8" transform="matrix(-0.7071 -0.7071 0.7071 -0.7071 283.3937 179.6073)" display="inline" width="7.7" height="44.6"/>
	
		<rect x="138.1" y="8.8" transform="matrix(-0.7071 0.7071 -0.7071 -0.7071 264.3292 -47.2667)" display="inline" width="7.7" height="44.6"/>
	
		<rect x="101.2" y="8.8" transform="matrix(-0.7071 -0.7071 0.7071 -0.7071 157.2453 127.3529)" display="inline" width="7.7" height="44.6"/>
	
		<rect x="64.2" y="8.8" transform="matrix(-0.7071 0.7071 -0.7071 -0.7071 138.1778 4.9849)" display="inline" width="7.7" height="44.6"/>
	
		<rect x="27.3" y="8.8" transform="matrix(-0.7071 -0.7071 0.7071 -0.7071 31.1173 75.1069)" display="inline" width="7.7" height="44.6"/>
	
		<rect x="45.8" y="27.3" transform="matrix(-0.7071 0.7071 -0.7071 -0.7071 119.7092 49.5602)" display="inline" width="7.7" height="44.6"/>
	
		<rect x="82.7" y="27.3" transform="matrix(-0.7071 -0.7071 0.7071 -0.7071 112.6679 145.8124)" display="inline" width="7.7" height="44.6"/>
	
		<rect x="119.6" y="27.3" transform="matrix(-0.7071 0.7071 -0.7071 -0.7071 245.8414 -2.6835)" display="inline" width="7.7" height="44.6"/>
	
		<rect x="156.6" y="27.3" transform="matrix(-0.7071 -0.7071 0.7071 -0.7071 238.7973 198.0589)" display="inline" width="7.7" height="44.6"/>
	
		<rect x="156.6" y="27.3" transform="matrix(-0.7071 0.7071 -0.7071 -0.7071 308.9208 -28.8004)" display="inline" width="7.7" height="44.6"/>
	
		<rect x="119.6" y="27.3" transform="matrix(-0.7071 -0.7071 0.7071 -0.7071 175.7184 171.941)" display="inline" width="7.7" height="44.6"/>
	
		<rect x="82.7" y="27.3" transform="matrix(-0.7071 0.7071 -0.7071 -0.7071 182.7694 23.4512)" display="inline" width="7.7" height="44.6"/>
	
		<rect x="45.7" y="27.3" transform="matrix(-0.7071 -0.7071 0.7071 -0.7071 49.5904 119.6951)" display="inline" width="7.7" height="44.6"/>
	
		<rect x="27.3" y="45.8" transform="matrix(-0.7071 0.7071 -0.7071 -0.7071 101.2431 94.1688)" display="inline" width="7.7" height="44.6"/>
	
		<rect x="64.2" y="45.8" transform="matrix(-0.7071 -0.7071 0.7071 -0.7071 68.0679 164.2978)" display="inline" width="7.7" height="44.6"/>
	
		<rect x="101.2" y="45.8" transform="matrix(-0.7071 0.7071 -0.7071 -0.7071 227.3753 41.9252)" display="inline" width="7.7" height="44.6"/>
	
		<rect x="138.1" y="45.8" transform="matrix(-0.7071 -0.7071 0.7071 -0.7071 194.1972 216.5443)" display="inline" width="7.7" height="44.6"/>
	
		<rect x="175.1" y="45.8" transform="matrix(-0.7071 0.7071 -0.7071 -0.7071 353.5076 -10.3185)" display="inline" width="7.7" height="44.6"/>
	
		<rect x="175.1" y="45.8" transform="matrix(-0.7071 -0.7071 0.7071 -0.7071 257.2668 242.6808)" display="inline" width="7.7" height="44.6"/>
	
		<rect x="138.1" y="45.8" transform="matrix(-0.7071 0.7071 -0.7071 -0.7071 290.4547 15.8083)" display="inline" width="7.7" height="44.6"/>
	
		<rect x="101.2" y="45.8" transform="matrix(-0.7071 -0.7071 0.7071 -0.7071 131.1183 190.4264)" display="inline" width="7.7" height="44.6"/>
	
		<rect x="64.2" y="45.8" transform="matrix(-0.7071 0.7071 -0.7071 -0.7071 164.3033 68.0599)" display="inline" width="7.7" height="44.6"/>
	
		<rect x="27.3" y="45.8" transform="matrix(-0.7071 -0.7071 0.7071 -0.7071 4.9904 138.1805)" display="inline" width="7.7" height="44.6"/>
	
		<rect x="45.8" y="64.2" transform="matrix(-0.7071 0.7071 -0.7071 -0.7071 145.8347 112.6352)" display="inline" width="7.7" height="44.6"/>
	
		<rect x="82.7" y="64.2" transform="matrix(-0.7071 -0.7071 0.7071 -0.7071 86.541 208.886)" display="inline" width="7.7" height="44.6"/>
	
		<rect x="119.6" y="64.2" transform="matrix(-0.7071 0.7071 -0.7071 -0.7071 271.9669 60.3915)" display="inline" width="7.7" height="44.6"/>
	
		<rect x="156.6" y="64.2" transform="matrix(-0.7071 -0.7071 0.7071 -0.7071 212.6704 261.1325)" display="inline" width="7.7" height="44.6"/>
	
		<rect x="156.6" y="64.2" transform="matrix(-0.7071 0.7071 -0.7071 -0.7071 335.0462 34.2746)" display="inline" width="7.7" height="44.6"/>
	
		<rect x="119.6" y="64.2" transform="matrix(-0.7071 -0.7071 0.7071 -0.7071 149.5914 235.0146)" display="inline" width="7.7" height="44.6"/>
	
		<rect x="82.7" y="64.2" transform="matrix(-0.7071 0.7071 -0.7071 -0.7071 208.8949 86.5262)" display="inline" width="7.7" height="44.6"/>
	
		<rect x="45.7" y="64.2" transform="matrix(-0.7071 -0.7071 0.7071 -0.7071 23.4635 182.7686)" display="inline" width="7.7" height="44.6"/>
	
		<rect x="27.3" y="82.7" transform="matrix(-0.7071 0.7071 -0.7071 -0.7071 127.3687 157.2438)" display="inline" width="7.7" height="44.6"/>
	
		<rect x="64.2" y="82.7" transform="matrix(-0.7071 -0.7071 0.7071 -0.7071 41.9409 227.3714)" display="inline" width="7.7" height="44.6"/>
	
		<rect x="101.2" y="82.7" transform="matrix(-0.7071 0.7071 -0.7071 -0.7071 253.5008 105.0002)" display="inline" width="7.7" height="44.6"/>
	
		<rect x="138.1" y="82.7" transform="matrix(-0.7071 -0.7071 0.7071 -0.7071 168.0703 279.6179)" display="inline" width="7.7" height="44.6"/>
	
		<rect x="175.1" y="82.7" transform="matrix(-0.7071 0.7071 -0.7071 -0.7071 379.6331 52.7565)" display="inline" width="7.7" height="44.6"/>
	
		<rect x="175.1" y="82.7" transform="matrix(-0.7071 -0.7071 0.7071 -0.7071 231.1399 305.7544)" display="inline" width="7.7" height="44.6"/>
	
		<rect x="138.1" y="82.7" transform="matrix(-0.7071 0.7071 -0.7071 -0.7071 316.5802 78.8833)" display="inline" width="7.7" height="44.6"/>
	
		<rect x="101.2" y="82.7" transform="matrix(-0.7071 -0.7071 0.7071 -0.7071 104.9914 253.4999)" display="inline" width="7.7" height="44.6"/>
	
		<rect x="64.2" y="82.7" transform="matrix(-0.7071 0.7071 -0.7071 -0.7071 190.4288 131.1348)" display="inline" width="7.7" height="44.6"/>
	
		<rect x="27.3" y="82.7" transform="matrix(-0.7071 -0.7071 0.7071 -0.7071 -21.1365 201.254)" display="inline" width="7.7" height="44.6"/>
	
		<rect x="45.8" y="101.2" transform="matrix(-0.7071 0.7071 -0.7071 -0.7071 171.9602 175.7102)" display="inline" width="7.7" height="44.6"/>
	
		<rect x="82.7" y="101.2" transform="matrix(-0.7071 -0.7071 0.7071 -0.7071 60.4141 271.9595)" display="inline" width="7.7" height="44.6"/>
	
		<rect x="119.6" y="101.2" transform="matrix(-0.7071 0.7071 -0.7071 -0.7071 298.0924 123.4665)" display="inline" width="7.7" height="44.6"/>
	
		<rect x="156.6" y="101.2" transform="matrix(-0.7071 -0.7071 0.7071 -0.7071 186.5434 324.2061)" display="inline" width="7.7" height="44.6"/>
	
		<rect x="156.6" y="101.2" transform="matrix(-0.7071 0.7071 -0.7071 -0.7071 361.1718 97.3496)" display="inline" width="7.7" height="44.6"/>
	
		<rect x="119.6" y="101.2" transform="matrix(-0.7071 -0.7071 0.7071 -0.7071 123.4645 298.0881)" display="inline" width="7.7" height="44.6"/>
	
		<rect x="82.7" y="101.2" transform="matrix(-0.7071 0.7071 -0.7071 -0.7071 235.0204 149.6012)" display="inline" width="7.7" height="44.6"/>
	
		<rect x="45.7" y="101.2" transform="matrix(-0.7071 -0.7071 0.7071 -0.7071 -2.6634 245.8421)" display="inline" width="7.7" height="44.6"/>
	
		<rect x="27.3" y="119.7" transform="matrix(-0.7071 0.7071 -0.7071 -0.7071 153.4941 220.3188)" display="inline" width="7.7" height="44.6"/>
	
		<rect x="64.2" y="119.7" transform="matrix(-0.7071 -0.7071 0.7071 -0.7071 15.814 290.4449)" display="inline" width="7.7" height="44.6"/>
	
		<rect x="101.2" y="119.7" transform="matrix(-0.7071 0.7071 -0.7071 -0.7071 279.6263 168.0751)" display="inline" width="7.7" height="44.6"/>
	
		<rect x="138.1" y="119.7" transform="matrix(-0.7071 -0.7071 0.7071 -0.7071 141.9434 342.6914)" display="inline" width="7.7" height="44.6"/>
	
		<rect x="175.1" y="119.7" transform="matrix(-0.7071 0.7071 -0.7071 -0.7071 405.7585 115.8315)" display="inline" width="7.7" height="44.6"/>
	
		<rect x="175.1" y="119.7" transform="matrix(-0.7071 -0.7071 0.7071 -0.7071 205.0129 368.8279)" display="inline" width="7.7" height="44.6"/>
	
		<rect x="138.1" y="119.7" transform="matrix(-0.7071 0.7071 -0.7071 -0.7071 342.7057 141.9583)" display="inline" width="7.7" height="44.6"/>
	
		<rect x="101.2" y="119.7" transform="matrix(-0.7071 -0.7071 0.7071 -0.7071 78.8645 316.5735)" display="inline" width="7.7" height="44.6"/>
	
		<rect x="64.2" y="119.7" transform="matrix(-0.7071 0.7071 -0.7071 -0.7071 216.5543 194.2098)" display="inline" width="7.7" height="44.6"/>
	
		<rect x="27.3" y="119.7" transform="matrix(-0.7071 -0.7071 0.7071 -0.7071 -47.2635 264.3275)" display="inline" width="7.7" height="44.6"/>
	
		<rect x="45.8" y="138.1" transform="matrix(-0.7071 0.7071 -0.7071 -0.7071 198.0857 238.7851)" display="inline" width="7.7" height="44.6"/>
	
		<rect x="82.7" y="138.1" transform="matrix(-0.7071 -0.7071 0.7071 -0.7071 34.2871 335.0331)" display="inline" width="7.7" height="44.6"/>
	
		<rect x="119.6" y="138.1" transform="matrix(-0.7071 0.7071 -0.7071 -0.7071 324.2179 186.5415)" display="inline" width="7.7" height="44.6"/>
	
		<rect x="156.6" y="138.1" transform="matrix(-0.7071 -0.7071 0.7071 -0.7071 160.4165 387.2796)" display="inline" width="7.7" height="44.6"/>
	
		<rect x="156.6" y="138.1" transform="matrix(-0.7071 0.7071 -0.7071 -0.7071 387.2972 160.4245)" display="inline" width="7.7" height="44.6"/>
	
		<rect x="119.6" y="138.1" transform="matrix(-0.7071 -0.7071 0.7071 -0.7071 97.3376 361.1616)" display="inline" width="7.7" height="44.6"/>
	
		<rect x="82.7" y="138.1" transform="matrix(-0.7071 0.7071 -0.7071 -0.7071 261.1459 212.6761)" display="inline" width="7.7" height="44.6"/>
	
		<rect x="45.7" y="138.1" transform="matrix(-0.7071 -0.7071 0.7071 -0.7071 -28.7903 308.9157)" display="inline" width="7.7" height="44.6"/>
	
		<rect x="27.3" y="156.6" transform="matrix(-0.7071 0.7071 -0.7071 -0.7071 179.6196 283.3938)" display="inline" width="7.7" height="44.6"/>
	
		<rect x="64.2" y="156.6" transform="matrix(-0.7071 -0.7071 0.7071 -0.7071 -10.3129 353.5185)" display="inline" width="7.7" height="44.6"/>
	
		<rect x="101.2" y="156.6" transform="matrix(-0.7071 0.7071 -0.7071 -0.7071 305.7518 231.1501)" display="inline" width="7.7" height="44.6"/>
	
		<rect x="138.1" y="156.6" transform="matrix(-0.7071 -0.7071 0.7071 -0.7071 115.8164 405.765)" display="inline" width="7.7" height="44.6"/>
	
		<rect x="175.1" y="156.6" transform="matrix(-0.7071 0.7071 -0.7071 -0.7071 431.8841 178.9065)" display="inline" width="7.7" height="44.6"/>
	
		<rect x="175.1" y="156.6" transform="matrix(-0.7071 -0.7071 0.7071 -0.7071 178.886 431.9014)" display="inline" width="7.7" height="44.6"/>
	
		<rect x="138.1" y="156.6" transform="matrix(-0.7071 0.7071 -0.7071 -0.7071 368.8312 205.0332)" display="inline" width="7.7" height="44.6"/>
	
		<rect x="101.2" y="156.6" transform="matrix(-0.7071 -0.7071 0.7071 -0.7071 52.7376 379.647)" display="inline" width="7.7" height="44.6"/>
	
		<rect x="64.2" y="156.6" transform="matrix(-0.7071 0.7071 -0.7071 -0.7071 242.6798 257.2848)" display="inline" width="7.7" height="44.6"/>
	
		<rect x="27.3" y="156.6" transform="matrix(-0.7071 -0.7071 0.7071 -0.7071 -73.3904 327.4011)" display="inline" width="7.7" height="44.6"/>
</g>
<g id="ortogonais" display="none">
	<rect x="179.5" y="30.5" display="inline" width="7.7" height="44.6"/>
	<rect x="127.3" y="30.5" display="inline" width="7.7" height="44.6"/>
	<rect x="135" y="22.8" display="inline" width="44.6" height="7.7"/>
	<rect x="135" y="75" display="inline" width="44.6" height="7.7"/>
	<rect x="75" y="30.5" display="inline" width="7.7" height="44.6"/>
	<rect x="82.7" y="22.8" display="inline" width="44.6" height="7.7"/>
	<rect x="82.7" y="75" display="inline" width="44.6" height="7.7"/>
	<rect x="22.8" y="30.5" display="inline" width="7.7" height="44.6"/>
	<rect x="30.5" y="22.8" display="inline" width="44.6" height="7.7"/>
	<rect x="30.5" y="75" display="inline" width="44.6" height="7.7"/>
	<rect x="179.5" y="82.7" display="inline" width="7.7" height="44.6"/>
	<rect x="127.3" y="82.7" display="inline" width="7.7" height="44.6"/>
	<rect x="135" y="127.3" display="inline" width="44.6" height="7.7"/>
	<rect x="75" y="82.7" display="inline" width="7.7" height="44.6"/>
	<rect x="82.7" y="127.3" display="inline" width="44.6" height="7.7"/>
	<rect x="22.8" y="82.7" display="inline" width="7.7" height="44.6"/>
	<rect x="30.5" y="127.3" display="inline" width="44.6" height="7.7"/>
	<rect x="179.5" y="135" display="inline" width="7.7" height="44.6"/>
	<rect x="127.3" y="135" display="inline" width="7.7" height="44.6"/>
	<rect x="135" y="179.5" display="inline" width="44.6" height="7.7"/>
	<rect x="75" y="135" display="inline" width="7.7" height="44.6"/>
	<rect x="82.7" y="179.5" display="inline" width="44.6" height="7.7"/>
	<rect x="22.8" y="135" display="inline" width="7.7" height="44.6"/>
	<rect x="30.5" y="179.5" display="inline" width="44.6" height="7.7"/>
</g>
<g id="logo_TRCOM">
	<g>
		<rect x="101.6" y="40.2" transform="matrix(-0.7071 -0.7071 0.7071 -0.7071 184.6295 165.4844)"  width="50" height="8.6"/>
		<rect x="80.9" y="19.5" transform="matrix(-0.7071 -0.7071 0.7071 -0.7071 113.9382 136.2048)"  width="8.6" height="50"/>
		<rect x="-1.9" y="60.9" transform="matrix(-0.7071 0.7071 -0.7071 -0.7071 85.4854 95.0091)"  width="50" height="8.6"/>
		<rect x="18.8" y="-1.2" transform="matrix(0.7072 -0.707 0.707 0.7072 -10.074 23.2777)"  width="8.6" height="50"/>
		<rect x="18.8" y="81.6" transform="matrix(-0.7071 0.7071 -0.7071 -0.7071 114.7662 165.6981)"  width="8.6" height="50"/>
		<rect x="-1.9" y="143.7" transform="matrix(-0.7071 0.7071 -0.7071 -0.7071 144.0464 236.3879)"  width="50" height="8.6"/>
		<rect x="199" y="34.2"  width="8.6" height="50"/>
		<rect x="149.1" y="25.6"  width="50" height="8.6"/>
	</g>
</g>
</svg>
